<svg xmlns="http://www.w3.org/2000/svg" width="900" height="700" viewBox="0 0 900 700">
  <defs>
    <style>
      .brd { fill:#edf8ee; stroke:#1f5d2d; stroke-width:4; }
      .pwr { fill:#ffe9c7; stroke:#8a5a00; stroke-width:2; }
      .ctl { fill:#dfeeff; stroke:#1f4f96; stroke-width:2; }
      .txt { font-family:Arial, sans-serif; font-size:16px; fill:#111827; }
      .trc { stroke:#b91c1c; stroke-width:6; fill:none; }
      .sig { stroke:#1f2937; stroke-width:2; fill:none; stroke-dasharray:8 6; }
      .title { font-family:Arial, sans-serif; font-size:28px; font-weight:700; fill:#111827; }
    </style>
  </defs>

  <rect x="0" y="0" width="900" height="700" fill="#ffffff"/>
  <text x="40" y="50" class="title">Smart Solar Li-Po Charger PCB (Top View, Concept)</text>

  <rect x="70" y="90" width="760" height="520" rx="16" class="brd"/>

  <rect x="95" y="120" width="90" height="50" class="pwr"/>
  <text x="118" y="150" class="txt">J1 IN</text>

  <rect x="210" y="120" width="80" height="50" class="pwr"/>
  <text x="235" y="150" class="txt">D1</text>

  <rect x="315" y="110" width="90" height="60" class="pwr"/>
  <text x="340" y="145" class="txt">C1</text>

  <rect x="430" y="120" width="90" height="50" class="pwr"/>
  <text x="455" y="150" class="txt">Q1</text>

  <rect x="550" y="110" width="100" height="60" class="pwr"/>
  <text x="585" y="145" class="txt">L1</text>

  <rect x="550" y="195" width="100" height="50" class="pwr"/>
  <text x="585" y="225" class="txt">D2</text>

  <rect x="680" y="140" width="90" height="80" class="pwr"/>
  <text x="705" y="180" class="txt">C2</text>

  <rect x="770" y="120" width="40" height="60" class="pwr"/>
  <text x="776" y="155" class="txt">J2</text>

  <rect x="430" y="260" width="90" height="40" class="pwr"/>
  <text x="455" y="286" class="txt">R5</text>

  <rect x="560" y="280" width="80" height="50" class="ctl"/>
  <text x="580" y="310" class="txt">U2</text>

  <rect x="190" y="300" width="180" height="160" class="ctl"/>
  <text x="228" y="335" class="txt">U1 STM8S103</text>
  <text x="236" y="365" class="txt">PWM + ADC</text>

  <rect x="100" y="260" width="60" height="30" class="ctl"/>
  <text x="112" y="281" class="txt">R1</text>
  <rect x="100" y="300" width="60" height="30" class="ctl"/>
  <text x="112" y="321" class="txt">R2</text>

  <rect x="100" y="360" width="60" height="30" class="ctl"/>
  <text x="112" y="381" class="txt">R3</text>
  <rect x="100" y="400" width="60" height="30" class="ctl"/>
  <text x="112" y="421" class="txt">R4</text>

  <rect x="90" y="490" width="100" height="70" class="ctl"/>
  <text x="112" y="530" class="txt">J3 SWIM</text>

  <path d="M185 145 L210 145 L290 145 L315 145 L430 145 L520 145 L550 145 L650 145 L680 180 L770 150" class="trc"/>
  <path d="M520 145 L550 220" class="trc"/>
  <path d="M550 220 L680 220" class="trc"/>

  <path d="M450 280 L370 340" class="sig"/>
  <path d="M130 275 L190 340" class="sig"/>
  <path d="M130 415 L190 375" class="sig"/>
  <path d="M140 525 L220 420" class="sig"/>

  <text x="90" y="600" class="txt">Red: high-current copper path</text>
  <text x="90" y="625" class="txt">Dashed: control/sense signals</text>
</svg>
